<svg
  xmlns="http://www.w3.org/2000/svg"
>
  <symbol
    id="floppy-disc"
    stroke="none"
    fill="currentColor"
  >

    <rect x="0.5" width="2.15385" height="2.15385" />
    <rect x="0.5" y="2.15405" width="2.15385" height="2.15385" />
    <rect x="0.5" y="4.30762" width="2.15385" height="2.15385" />
    <rect x="0.5" y="6.46167" width="2.15385" height="2.15385" />
    <rect x="0.5" y="8.61523" width="2.15385" height="2.15385" />
    <rect x="0.5" y="10.7693" width="2.15385" height="2.15385" />
    <rect x="0.5" y="12.9231" width="2.15385" height="2.15385" />
    <rect x="0.5" y="15.0769" width="2.15385" height="2.15385" />
    <rect x="0.5" y="17.2307" width="2.15385" height="2.15385" />
    <rect x="0.5" y="19.3848" width="2.15385" height="2.15385" />
    <rect x="0.5" y="21.5383" width="2.15385" height="2.15385" />
    <rect x="0.5" y="23.6924" width="2.15385" height="2.15385" />
    <rect x="0.5" y="25.8459" width="2.15385" height="2.15385" />
    <rect
      x="24.1929"
      width="2.15385"
      height="2.15385"
      transform="rotate(90 24.1929 0)"
    />
    <rect
      x="22.0391"
      width="2.15385"
      height="2.15385"
      transform="rotate(90 22.0391 0)"
    />
    <rect
      x="19.8843"
      width="2.15385"
      height="2.15385"
      transform="rotate(90 19.8843 0)"
    />
    <rect
      x="17.7305"
      width="2.15385"
      height="2.15385"
      transform="rotate(90 17.7305 0)"
    />
    <rect
      x="15.5767"
      width="2.15385"
      height="2.15385"
      transform="rotate(90 15.5767 0)"
    />
    <rect
      x="13.4233"
      width="2.15385"
      height="2.15385"
      transform="rotate(90 13.4233 0)"
    />
    <rect
      x="11.2695"
      width="2.15385"
      height="2.15385"
      transform="rotate(90 11.2695 0)"
    />
    <rect
      x="9.11572"
      width="2.15385"
      height="2.15385"
      transform="rotate(90 9.11572 0)"
    />
    <rect
      x="6.96094"
      width="2.15385"
      height="2.15385"
      transform="rotate(90 6.96094 0)"
    />
    <rect
      x="4.80713"
      width="2.15385"
      height="2.15385"
      transform="rotate(90 4.80713 0)"
    />
    <rect
      x="26.3462"
      y="2.15405"
      width="2.15385"
      height="2.15385"
      transform="rotate(90 26.3462 2.15405)"
    />
    <rect
      x="6.96094"
      y="4.30762"
      width="2.15385"
      height="2.15385"
      transform="rotate(90 6.96094 4.30762)"
    />
    <rect
      x="6.96094"
      y="2.15405"
      width="2.15385"
      height="2.15385"
      transform="rotate(90 6.96094 2.15405)"
    />
    <rect
      x="6.96094"
      y="6.46167"
      width="2.15385"
      height="2.15385"
      transform="rotate(90 6.96094 6.46167)"
    />
    <rect
      x="22.0391"
      y="4.30762"
      width="2.15385"
      height="2.15385"
      transform="rotate(90 22.0391 4.30762)"
    />
    <rect
      x="22.0391"
      y="2.15405"
      width="2.15385"
      height="2.15385"
      transform="rotate(90 22.0391 2.15405)"
    />
    <rect
      x="22.0391"
      y="6.46167"
      width="2.15385"
      height="2.15385"
      transform="rotate(90 22.0391 6.46167)"
    />
    <rect
      x="17.7305"
      y="4.30762"
      width="2.15385"
      height="2.15385"
      transform="rotate(90 17.7305 4.30762)"
    />
    <rect
      x="17.7305"
      y="2.15405"
      width="2.15385"
      height="2.15385"
      transform="rotate(90 17.7305 2.15405)"
    />
    <rect
      x="17.7305"
      y="6.46167"
      width="2.15385"
      height="2.15385"
      transform="rotate(90 17.7305 6.46167)"
    />
    <rect
      x="22.0391"
      y="8.61523"
      width="2.15385"
      height="2.15385"
      transform="rotate(90 22.0391 8.61523)"
    />
    <rect
      x="19.8843"
      y="8.61523"
      width="2.15385"
      height="2.15385"
      transform="rotate(90 19.8843 8.61523)"
    />
    <rect
      x="17.7305"
      y="8.61523"
      width="2.15385"
      height="2.15385"
      transform="rotate(90 17.7305 8.61523)"
    />
    <rect
      x="15.5767"
      y="8.61523"
      width="2.15385"
      height="2.15385"
      transform="rotate(90 15.5767 8.61523)"
    />
    <rect
      x="13.4233"
      y="8.61523"
      width="2.15385"
      height="2.15385"
      transform="rotate(90 13.4233 8.61523)"
    />
    <rect
      x="11.2695"
      y="8.61523"
      width="2.15385"
      height="2.15385"
      transform="rotate(90 11.2695 8.61523)"
    />
    <rect
      x="9.11572"
      y="8.61523"
      width="2.15385"
      height="2.15385"
      transform="rotate(90 9.11572 8.61523)"
    />
    <rect
      x="6.96094"
      y="8.61523"
      width="2.15385"
      height="2.15385"
      transform="rotate(90 6.96094 8.61523)"
    />
    <rect
      x="24.1929"
      y="15.0769"
      width="2.15385"
      height="2.15385"
      transform="rotate(90 24.1929 15.0769)"
    />
    <rect
      x="22.0391"
      y="15.0769"
      width="2.15385"
      height="2.15385"
      transform="rotate(90 22.0391 15.0769)"
    />
    <rect
      x="19.8843"
      y="15.0769"
      width="2.15385"
      height="2.15385"
      transform="rotate(90 19.8843 15.0769)"
    />
    <rect
      x="17.7305"
      y="15.0769"
      width="2.15385"
      height="2.15385"
      transform="rotate(90 17.7305 15.0769)"
    />
    <rect
      x="15.5767"
      y="15.0769"
      width="2.15385"
      height="2.15385"
      transform="rotate(90 15.5767 15.0769)"
    />
    <rect
      x="13.4233"
      y="15.0769"
      width="2.15385"
      height="2.15385"
      transform="rotate(90 13.4233 15.0769)"
    />
    <rect
      x="11.2695"
      y="15.0769"
      width="2.15385"
      height="2.15385"
      transform="rotate(90 11.2695 15.0769)"
    />
    <rect
      x="9.11572"
      y="15.0769"
      width="2.15385"
      height="2.15385"
      transform="rotate(90 9.11572 15.0769)"
    />
    <rect
      x="6.96094"
      y="15.0769"
      width="2.15385"
      height="2.15385"
      transform="rotate(90 6.96094 15.0769)"
    />
    <rect
      x="24.1929"
      y="17.2307"
      width="2.15385"
      height="2.15385"
      transform="rotate(90 24.1929 17.2307)"
    />
    <rect
      x="6.96094"
      y="17.2307"
      width="2.15385"
      height="2.15385"
      transform="rotate(90 6.96094 17.2307)"
    />
    <rect
      x="24.1929"
      y="19.3848"
      width="2.15385"
      height="2.15385"
      transform="rotate(90 24.1929 19.3848)"
    />
    <rect
      x="6.96094"
      y="19.3848"
      width="2.15385"
      height="2.15385"
      transform="rotate(90 6.96094 19.3848)"
    />
    <rect
      x="24.1929"
      y="21.5383"
      width="2.15385"
      height="2.15385"
      transform="rotate(90 24.1929 21.5383)"
    />
    <rect
      x="6.96094"
      y="21.5383"
      width="2.15385"
      height="2.15385"
      transform="rotate(90 6.96094 21.5383)"
    />
    <rect
      x="6.96094"
      y="23.6924"
      width="2.15385"
      height="2.15385"
      transform="rotate(90 6.96094 23.6924)"
    />
    <rect
      x="24.1929"
      y="23.6924"
      width="2.15385"
      height="2.15385"
      transform="rotate(90 24.1929 23.6924)"
    />
    <rect
      x="26.3462"
      y="25.8459"
      width="2.15385"
      height="2.15385"
      transform="rotate(90 26.3462 25.8459)"
    />
    <rect
      x="24.1929"
      y="25.8459"
      width="2.15385"
      height="2.15385"
      transform="rotate(90 24.1929 25.8459)"
    />
    <rect
      x="22.0391"
      y="25.8459"
      width="2.15385"
      height="2.15385"
      transform="rotate(90 22.0391 25.8459)"
    />
    <rect
      x="19.8843"
      y="25.8459"
      width="2.15385"
      height="2.15385"
      transform="rotate(90 19.8843 25.8459)"
    />
    <rect
      x="17.7305"
      y="25.8459"
      width="2.15385"
      height="2.15385"
      transform="rotate(90 17.7305 25.8459)"
    />
    <rect
      x="15.5767"
      y="25.8459"
      width="2.15385"
      height="2.15385"
      transform="rotate(90 15.5767 25.8459)"
    />
    <rect
      x="13.4233"
      y="25.8459"
      width="2.15385"
      height="2.15385"
      transform="rotate(90 13.4233 25.8459)"
    />
    <rect
      x="11.2695"
      y="25.8459"
      width="2.15385"
      height="2.15385"
      transform="rotate(90 11.2695 25.8459)"
    />
    <rect
      x="9.11572"
      y="25.8459"
      width="2.15385"
      height="2.15385"
      transform="rotate(90 9.11572 25.8459)"
    />
    <rect
      x="6.96094"
      y="25.8459"
      width="2.15385"
      height="2.15385"
      transform="rotate(90 6.96094 25.8459)"
    />
    <rect
      x="4.80713"
      y="25.8459"
      width="2.15385"
      height="2.15385"
      transform="rotate(90 4.80713 25.8459)"
    />
    <rect
      x="28.5"
      y="28"
      width="2.15385"
      height="2.15385"
      transform="rotate(-180 28.5 28)"
    />
    <rect
      x="28.5"
      y="25.8459"
      width="2.15385"
      height="2.15385"
      transform="rotate(-180 28.5 25.8459)"
    />
    <rect
      x="28.5"
      y="23.6924"
      width="2.15385"
      height="2.15385"
      transform="rotate(-180 28.5 23.6924)"
    />
    <rect
      x="28.5"
      y="21.5383"
      width="2.15385"
      height="2.15385"
      transform="rotate(-180 28.5 21.5383)"
    />
    <rect
      x="28.5"
      y="19.3848"
      width="2.15385"
      height="2.15385"
      transform="rotate(-180 28.5 19.3848)"
    />
    <rect
      x="28.5"
      y="17.2307"
      width="2.15385"
      height="2.15385"
      transform="rotate(-180 28.5 17.2307)"
    />
    <rect
      x="28.5"
      y="15.0769"
      width="2.15385"
      height="2.15385"
      transform="rotate(-180 28.5 15.0769)"
    />
    <rect
      x="28.5"
      y="12.9231"
      width="2.15385"
      height="2.15385"
      transform="rotate(-180 28.5 12.9231)"
    />
    <rect
      x="28.5"
      y="10.7693"
      width="2.15385"
      height="2.15385"
      transform="rotate(-180 28.5 10.7693)"
    />
    <rect
      x="28.5"
      y="8.61523"
      width="2.15385"
      height="2.15385"
      transform="rotate(-180 28.5 8.61523)"
    />
    <rect
      x="28.5"
      y="6.46167"
      width="2.15385"
      height="2.15385"
      transform="rotate(-180 28.5 6.46167)"
    />
  </symbol>
</svg>